<svg width="25" height="17" viewBox="0 0 25 17" fill="none" xmlns="http://www.w3.org/2000/svg">
<path d="M7.94701 14.6013C7.12061 15.5072 6.10193 16.0419 5 16.0419C2.23858 16.0419 0 12.684 0 8.54187C0 4.39973 2.23858 1.04187 5 1.04187C6.53589 1.04187 7.91004 2.08064 8.82723 3.71536C8.46331 3.73932 8.07512 3.75631 7.68203 3.76131C6.90013 2.60446 5.93377 2.04187 5 2.04187C4.05767 2.04187 3.08215 2.61482 2.29652 3.79327C1.51554 4.96473 1 6.64069 1 8.54187C1 10.443 1.51554 12.119 2.29652 13.2905C3.08215 14.4689 4.05767 15.0419 5 15.0419C5.56317 15.0419 6.13819 14.8372 6.67745 14.421C7.08585 14.4869 7.51346 14.5469 7.94701 14.6013Z" fill="black"/>
<path d="M9.61728 5.659C9.86385 6.54652 10 7.52034 10 8.54187C10 10.0915 9.68667 11.5314 9.14986 12.7268C8.79416 12.6891 8.44235 12.6483 8.10087 12.6047C8.65456 11.5034 9 10.0981 9 8.54187C9 7.52703 8.8531 6.57636 8.59735 5.73234C8.9607 5.71371 9.30508 5.68789 9.61728 5.659Z" fill="black"/>
<path d="M5.5 13.0419C7.5 13.7085 12.2351 14.0418 13.5 14.0419C14.5 14.0419 17 14.0419 18 14.0419C20.6667 14.0419 25.5 13.7419 23.5 12.5419C22.7838 12.1121 21.9034 11.8876 21 11.7742M16 11.5419C16.3568 11.8986 18.7499 11.4917 21 11.7742M21 11.7742C22.6667 11.5301 25.5 10.8419 23.5 10.0419C21.5 9.24185 17.6667 9.04185 16 9.04185M20.2544 9.3151C22.2544 9.48176 25.7 9.24185 22.5 8.04185C19.3 6.84185 16.8333 6.87519 16 7.04185M19.8067 7.25777C22.3067 7.25777 26.3896 7.49454 23 6.04184C19.5 4.54184 16.8333 5.04184 16 5.04184V4.54184C17.8333 3.20851 20.6 0.641838 17 1.04184C13.4 1.44184 11.1667 3.54184 10.5 4.54184C9.5 4.70849 7.1 4.94181 5.5 4.54184" stroke="black"/>
</svg>
